# xmcd CD database file
#
# Track frame offsets:
#	150
#	13957
#	28755
#	47135
#	59307
#	74772
#	87495
#	103927
#	117482
#	130137
#	147612
#	161835
#	176937
#	188530
#	203100
#	222007
#	238415
#	250115
#	265845
#	280455
#	295795
#	310507
#
# Disc length: 4364 seconds
#
# Revision: 0
# Processed by: cddbd v1.5.2PL0 Copyright (c) Steve Scherf et al.
# Submitted via: CDex 1.70beta2
#
DISCID=62110a16
DTITLE=Jones Country - Jones Country JCY-015
DYEAR=0000
DGENRE=Country
TTITLE0=Mickey Gilley and Charly McClain/Candy Man
TTITLE1=Vern Gosdin/Back When
TTITLE2=Vern Gosdin/That Just About Does It
TTITLE3=Lee Greenwood/Before I'm Ever Over You
TTITLE4=Lee Greenwood/Going, Going, Gone
TTITLE5=Lee Greenwood/Hopelessly Yours
TTITLE6=Lee Greenwood/I Never Thought Your Memory Would Go This Far
TTITLE7=Lee Greenwood/Touch And Go Crazy
TTITLE8=Merle Haggard/A Better Love Next Time
TTITLE9=Merle Haggard/In My Next Life
TTITLE10=Merle Haggard/That's The Way Love Goes
TTITLE11=Merle Haggard and George Jones/Yesterday's Wine
TTITLE12=Tom T Hall/PS I Love You
TTITLE13=Tom T Hall/That Song Is Driving Me Crazy
TTITLE14=Roy Orbison and Emmylou Harris/That Lovin' You Feeling Again
TTITLE15=Highway 101/All The Reasons Why
TTITLE16=Highway 101/Cry, Cry, Cry
TTITLE17=Highway 101/Honky Tonk Heart
TTITLE18=Highway 101/Setting Me Up
TTITLE19=Highway 101/Who's Lonely Now
TTITLE20=Chris Hillman and Roger McGuinn/You Ain't Going Nowhere
TTITLE21=Waylon Jennings/Can't You See
EXTD=YEAR: 0000
EXTT0=
EXTT1=
EXTT2=
EXTT3=
EXTT4=
EXTT5=
EXTT6=
EXTT7=
EXTT8=
EXTT9=
EXTT10=
EXTT11=
EXTT12=
EXTT13=
EXTT14=
EXTT15=
EXTT16=
EXTT17=
EXTT18=
EXTT19=
EXTT20=
EXTT21=
PLAYORDER=
